# xmcd CD database file
#
# Track frame offsets:
#	150
#	12841
#	24493
#	38129
#	48257
#	67281
#	79235
#	91189
#	100859
#	109103
#	123021
#	136662
#	149559
#	157324
#	174789
#	187838
#	205237
#	219991
#
# Disc length: 3042 seconds
#
# Revision: 5
# Processed by: cddbd v1.5.2PL0 Copyright (c) Steve Scherf et al.
# Submitted via: CDex 1.81
#
DISCID=ee0be012
DTITLE=Glenn Miller - In The Mood
DYEAR=1940
DGENRE=Jazz
TTITLE0=Moonlight Serenade  [1940]
TTITLE1=My Blue Heaven  [1940]
TTITLE2=Bugle Call Rag  [1940]
TTITLE3=Wanna Hat With Cherries  [1940]
TTITLE4=St. Louis Blues  [1940]
TTITLE5=Rug Cutter's Swing  [1940]
TTITLE6=Rug Cutter's Swing (2)  [1940]
TTITLE7=Boog-It  [1940]
TTITLE8=Fools Rush In  [1940]
TTITLE9=Weekend Of A Private Secretary  [1940]
TTITLE10=Slow Freight  [1940]
TTITLE11=Cowboy From Brooklyn  [1940]
TTITLE12=Sierra Sue  [1940]
TTITLE13=In The Mood  [1940]
TTITLE14=Body And Soul  [1940]
TTITLE15=By The Waters Of Minnetonka  [1940]
TTITLE16=Conversation Piece  [1940]
TTITLE17=Polka Dots And Moonbeans  [1940]
EXTD=YEAR: 1940
EXTT0=
EXTT1=
EXTT2=
EXTT3=
EXTT4=
EXTT5=
EXTT6=
EXTT7=
EXTT8=
EXTT9=
EXTT10=
EXTT11=
EXTT12=
EXTT13=
EXTT14=
EXTT15=
EXTT16=
EXTT17=
PLAYORDER=
